<svg version="1.1" id="Layer_1" xmlns="http://www.w3.org/2000/svg" xmlns:xlink="http://www.w3.org/1999/xlink" x="0px" y="0px"
	 width="100%" viewBox="0 0 127 272" enable-background="new 0 0 127 272" xml:space="preserve">
<path fill="#FCFDFD" opacity="1.000000" stroke="none" 
	d="
M1.000000,73.000000 
	C1.000000,68.643097 1.000000,64.286201 1.193401,59.560295 
	C1.386802,59.191284 1.816621,59.153049 1.980393,59.425045 
	C3.082211,60.152416 4.020257,60.607792 4.965964,61.041206 
	C4.973626,61.019241 4.931997,61.037380 5.073718,61.312466 
	C5.795412,61.772499 6.375386,61.957443 6.957426,62.095840 
	C6.959492,62.049290 6.867640,62.065037 6.970727,62.312809 
	C7.391081,62.688519 7.708347,62.816452 8.023956,62.975258 
	C8.022298,63.006130 8.062695,62.959301 8.236443,63.191490 
	C8.937068,63.633656 9.463945,63.843639 9.993221,64.025475 
	C9.995620,63.997326 9.946879,64.025894 10.099013,64.292557 
	C10.821000,64.764374 11.390852,64.969536 12.145009,65.456131 
	C21.307064,71.027596 30.284813,76.317619 40.207325,82.164345 
	C35.176208,64.455513 30.515387,48.050079 25.854565,31.644646 
	C26.177828,31.518555 26.501093,31.392464 26.824356,31.266373 
	C31.123825,36.873753 35.423294,42.481136 39.812790,48.369820 
	C40.278538,49.085289 40.654251,49.519463 41.012070,49.971565 
	C40.994175,49.989502 41.043709,49.979740 41.078926,50.243271 
	C41.391167,50.710724 41.668194,50.914646 41.953384,51.079453 
	C41.961552,51.040337 41.881660,51.042488 41.949852,51.330902 
	C42.308151,51.872272 42.598251,52.125233 42.924404,52.634903 
	C43.295120,53.261566 43.629791,53.631519 44.015045,54.269951 
	C44.354492,54.739571 44.643360,54.940712 44.938381,55.097404 
	C44.944538,55.052959 44.855553,55.064606 44.928612,55.331608 
	C45.281116,55.814983 45.560562,56.031357 45.833046,56.191994 
	C45.826080,56.136261 45.737720,56.205627 45.803780,56.514030 
	C46.547432,57.592285 47.225025,58.362144 47.918171,59.090508 
	C47.933723,59.049011 47.845787,59.060074 47.910786,59.340466 
	C48.333458,60.051044 48.691132,60.481232 49.026531,60.940453 
	C49.004257,60.969490 49.077415,60.971584 49.106010,61.230133 
	C49.412460,61.681000 49.690315,61.873325 49.983315,62.036507 
	C49.998463,62.007370 49.935432,62.025837 49.996693,62.304302 
	C50.343307,62.817024 50.628662,63.051281 50.961594,63.547970 
	C51.353107,64.200676 51.697048,64.590942 52.078316,65.243942 
	C52.392223,65.710098 52.668804,65.913528 52.957802,66.074112 
	C52.970219,66.031273 52.890625,66.071564 52.989090,66.417709 
	C54.026001,67.930054 54.964447,69.096252 56.557125,71.075455 
	C59.072598,53.270985 61.407722,36.743027 63.742844,20.215065 
	C64.309196,20.188015 64.875549,20.160963 65.441902,20.133911 
	C67.920723,36.830040 70.399551,53.526165 73.059563,71.442726 
	C74.877014,68.613144 76.008568,66.851425 77.091675,65.059616 
	C77.043228,65.029533 77.095787,65.130760 77.391792,64.994980 
	C78.506721,63.604210 79.325645,62.349220 80.102829,61.075615 
	C80.061081,61.056999 80.074463,61.147427 80.326462,61.049911 
	C80.729904,60.638123 80.881340,60.323849 81.014481,60.005814 
	C80.996193,60.002048 81.017723,60.032719 81.282791,59.892029 
	C81.789566,59.212307 82.031273,58.673271 82.204666,58.120350 
	C82.136353,58.106464 82.162163,58.243477 82.420959,58.143387 
	C82.825516,57.711262 82.971260,57.379223 83.076942,57.042179 
	C83.036873,57.037170 83.056358,57.115547 83.307175,57.021927 
	C83.708458,56.617744 83.858917,56.307186 84.241409,55.860840 
	C84.679092,55.241951 84.884735,54.758850 85.344574,54.151081 
	C85.758888,53.693359 85.919006,53.360310 86.042953,53.019203 
	C86.006783,53.011150 86.049454,53.071747 86.337502,52.941315 
	C87.132896,51.905197 87.640244,50.999512 88.106522,50.076118 
	C88.065453,50.058414 88.073189,50.147537 88.329346,50.056435 
	C88.742126,49.650440 88.898750,49.335541 89.026917,49.012928 
	C88.998459,49.005211 89.034393,49.051983 89.317825,48.916138 
	C90.113274,47.882957 90.625282,46.985630 91.096649,46.068275 
	C91.056000,46.048248 91.068626,46.137989 91.324036,46.045914 
	C91.736549,45.639027 91.893646,45.324211 92.289764,44.898651 
	C92.720833,44.312923 92.912872,43.837944 93.369095,43.229698 
	C93.796349,42.745583 93.959427,42.394737 94.082230,42.042828 
	C94.041962,42.041763 94.059570,42.120384 94.309311,42.025787 
	C94.705856,41.620300 94.852669,41.309414 94.999741,40.999260 
	C95.000000,41.000000 94.998589,40.999863 95.259247,40.855537 
	C95.754433,40.172916 95.988976,39.634624 96.161224,39.086605 
	C96.098938,39.076878 96.118332,39.201462 96.374939,39.103798 
	C96.781311,38.680748 96.931068,38.355362 97.044083,38.021084 
	C97.007339,38.012196 97.050446,38.074310 97.339996,37.943081 
	C98.118515,36.893093 98.607468,35.974339 99.059685,35.037746 
	C99.022942,35.019913 99.042686,35.099178 99.294006,35.009605 
	C99.712135,34.619717 99.878944,34.319405 100.021591,34.010807 
	C99.997421,34.002522 100.023849,34.046284 100.257797,33.957382 
	C100.589241,33.576836 100.686737,33.285194 100.875046,32.789436 
	C100.965843,32.585320 101.042511,32.145142 101.427948,32.111435 
	C102.012794,33.104301 102.583473,34.223701 102.353622,35.142933 
	C100.279106,43.439606 98.064323,51.701206 95.930679,59.973282 
	C95.970688,59.973473 95.931793,59.903530 95.648727,60.148529 
	C94.205986,64.909103 93.046295,69.424675 91.928757,73.963127 
	C91.970909,73.986000 91.927444,73.900497 91.644569,74.134888 
	C90.817612,76.542938 90.273537,78.716591 89.403839,82.191109 
	C92.760498,80.020905 95.022667,78.558334 97.477203,77.081360 
	C97.669563,77.066956 97.983063,76.842094 98.237923,76.839935 
	C98.685539,76.569397 98.878304,76.301018 99.040123,76.018761 
	C99.009186,76.004890 99.021904,76.071495 99.315582,76.031647 
	C100.074265,75.660889 100.539268,75.329971 101.002136,74.999359 
	C101.000000,74.999657 100.997581,75.002266 101.271561,74.974319 
	C101.764084,74.670853 101.982628,74.395340 102.138779,74.110580 
	C102.076370,74.101326 102.097099,74.225784 102.400291,74.172348 
	C103.169258,73.769363 103.635040,73.419815 104.064743,73.047791 
	C104.028679,73.025307 104.041306,73.109367 104.312866,73.066368 
	C104.828491,72.774567 105.072548,72.525757 105.242569,72.260803 
	C105.168533,72.244652 105.225410,72.385117 105.544426,72.322418 
	C106.368858,71.880234 106.874275,71.500748 107.549736,71.119675 
	C107.719780,71.118080 107.973984,70.892120 108.238281,70.883789 
	C108.707710,70.602791 108.912842,70.330132 109.075485,70.046188 
	C109.032997,70.034889 109.069199,70.115021 109.405678,70.060471 
	C111.219650,69.023308 112.697136,68.040688 114.453056,67.030396 
	C115.160126,66.695641 115.588753,66.388550 116.323959,66.021042 
	C116.926804,65.684494 117.223076,65.408356 117.660431,65.146271 
	C117.801514,65.160324 117.983345,64.942726 118.253937,64.928177 
	C118.741829,64.643463 118.959114,64.373306 119.120636,64.093582 
	C119.064880,64.084007 119.078712,64.196304 119.382874,64.154739 
	C120.142464,63.753990 120.597893,63.394802 121.029053,63.016830 
	C121.004791,62.998043 121.030586,63.053650 121.350830,62.999783 
	C122.529327,62.326187 123.387581,61.706463 124.449493,61.072037 
	C124.653152,61.057331 124.999695,60.841236 125.256889,60.847603 
	C125.714981,60.588615 125.915878,60.323257 126.087692,60.053482 
	C126.058617,60.049068 126.090042,60.099522 126.345306,60.043396 
	C126.817734,59.724472 127.034889,59.461674 127.464905,59.246437 
	C127.677757,59.293995 128.000000,59.000000 128.000000,59.000000 
	C128.000000,65.354401 128.000000,71.708794 127.764496,78.532318 
	C127.528984,79.001434 127.057968,79.000587 126.959969,78.596497 
	C126.773514,76.481293 126.685059,74.770187 126.596603,73.059082 
	C126.028824,72.667587 125.461044,72.276085 124.893272,71.884590 
	C105.138481,92.685654 85.383698,113.486725 65.553902,134.366776 
	C63.505363,132.537384 62.875515,132.020630 62.297050,131.451645 
	C47.833797,117.225243 33.416916,102.951363 18.896275,88.783821 
	C13.366572,83.388596 7.600863,78.235252 1.705263,72.919769 
	C1.467812,72.867867 1.000000,73.000000 1.000000,73.000000 
z"/>
<path fill="#FEFFFF" opacity="1.000000" stroke="none" 
	d="
M77.000000,273.000000 
	C51.741268,273.000000 26.482534,273.000000 1.000000,273.000000 
	C1.000000,248.979568 1.000000,224.958450 1.313672,200.441711 
	C1.833091,199.904617 2.038837,199.863144 2.697568,199.829880 
	C10.738805,199.845963 18.327059,199.853836 25.943672,200.339951 
	C25.972033,219.698257 25.972033,238.578339 25.972033,257.406616 
	C30.652224,257.406616 34.676933,257.406616 39.130821,257.406616 
	C39.130821,254.657623 39.130821,252.347748 39.568886,250.051117 
	C42.205006,250.064377 44.403065,250.064377 46.971954,250.064377 
	C46.971954,247.098068 46.971954,244.987869 47.381920,242.819977 
	C50.971558,242.594528 55.398369,243.833755 53.190285,237.739410 
	C52.939243,237.046539 53.725243,235.977951 54.405506,235.049591 
	C55.530064,234.953705 56.279491,234.891769 57.411591,234.906082 
	C58.834736,234.998489 59.875210,235.014679 60.977638,235.362000 
	C61.108326,236.135574 61.177055,236.577988 61.179985,237.260132 
	C61.114185,237.499878 61.247772,237.978806 61.176533,238.318573 
	C61.151379,239.116470 61.197460,239.574600 61.160019,240.393677 
	C61.130280,241.489090 61.184063,242.223557 61.164028,243.384811 
	C61.155457,245.533752 61.220703,247.255905 61.440964,249.350662 
	C63.983879,249.946182 66.371773,250.169113 69.214027,250.434448 
	C69.214027,255.473495 69.214027,260.190826 69.214027,265.171753 
	C71.660683,265.171753 73.603241,265.171753 75.393562,265.171753 
	C75.971779,267.989410 76.485886,270.494720 77.000000,273.000000 
z"/>
<path fill="#FFFFFF" opacity="1.000000" stroke="none" 
	d="
M127.057968,79.000587 
	C127.057968,79.000587 127.528984,79.001434 127.764496,79.000717 
	C128.000000,143.666687 128.000000,208.333389 128.000000,273.000000 
	C117.563881,273.000000 107.250603,273.000000 96.473419,272.629974 
	C96.007927,269.905792 96.006332,267.551636 96.386749,265.133636 
	C97.800713,265.029266 98.832657,264.988770 100.246124,264.923889 
	C102.597992,261.779266 104.568329,258.659058 106.609428,255.426819 
	C104.342918,252.726669 102.347176,249.613281 99.653702,247.319016 
	C95.949074,244.163498 92.847130,241.340088 96.689964,236.310165 
	C96.991516,235.915482 96.930199,234.840958 96.601875,234.433167 
	C94.520607,231.848312 96.077957,229.549683 97.464813,227.117676 
	C102.616356,227.096848 107.306213,227.143295 112.022278,227.465515 
	C112.365662,228.160858 112.682846,228.580429 113.005096,229.353943 
	C113.673546,230.471924 114.336929,231.235962 115.038124,232.348557 
	C117.076782,236.820877 119.786537,234.111145 121.291504,232.727249 
	C122.704857,231.427597 124.982719,228.677185 120.951691,226.662689 
	C119.602463,225.550461 118.301231,224.775543 116.689835,224.000122 
	C115.966110,223.998871 115.552559,223.998077 115.057770,223.661438 
	C114.905365,222.871674 114.834183,222.417786 114.846802,221.640656 
	C115.000023,220.879089 115.069427,220.440781 115.500336,219.993301 
	C120.105042,217.343048 121.502716,213.341751 118.945290,210.662659 
	C117.926910,210.173004 116.961700,209.883774 115.999878,209.894653 
	C113.253304,209.925720 110.929405,209.534302 111.266190,205.779602 
	C111.355347,203.725754 111.177826,201.892303 111.457886,199.958786 
	C116.823418,199.858704 121.731369,199.858704 126.838951,199.858704 
	C126.838951,183.131027 126.812492,167.192627 126.845131,151.254349 
	C126.894447,127.169716 126.984962,103.085167 127.057968,79.000587 
M125.668518,235.824020 
	C124.883224,235.851410 124.097923,235.878799 123.312630,235.906174 
	C123.461678,236.472656 123.610718,237.039154 123.759758,237.605637 
	C124.447998,237.237656 125.136238,236.869659 125.668518,235.824020 
z"/>
<path fill="#486E94" opacity="1.000000" stroke="none" 
	d="
M99.864601,264.948242 
	C98.832657,264.988770 97.800713,265.029266 95.970703,265.065399 
	C93.095177,264.804291 91.815834,265.210022 92.009979,267.821381 
	C92.116501,269.254242 91.439423,270.745392 91.082481,271.786743 
	C90.177895,265.662964 89.685913,265.499512 81.374390,265.958527 
	C75.653328,266.274445 78.884453,270.549591 78.000000,273.000000 
	C78.000000,273.000000 77.500000,273.000000 77.250000,273.000000 
	C76.485886,270.494720 75.971779,267.989410 75.393562,265.171753 
	C73.603241,265.171753 71.660683,265.171753 69.214027,265.171753 
	C69.214027,260.190826 69.214027,255.473495 69.214027,250.434448 
	C66.371773,250.169113 63.983879,249.946182 61.846733,249.355377 
	C63.727505,248.987106 65.357529,248.986710 67.434128,248.935104 
	C68.174400,248.824768 68.468086,248.765656 69.133118,248.863037 
	C71.584900,249.244263 73.665352,249.468964 75.790039,249.698425 
	C76.020233,254.599762 74.515724,260.968964 76.918327,263.284943 
	C79.494423,265.768158 85.745842,264.440460 90.394150,264.763763 
	C90.538948,264.773804 90.693100,264.649353 91.029457,264.510742 
	C91.306427,263.022675 91.603424,261.426941 91.957962,260.239014 
	C92.743668,265.408264 95.773033,263.976807 98.988373,263.339661 
	C98.988373,261.460846 99.081703,259.820251 98.967941,258.194183 
	C98.763260,255.268661 100.241058,250.779816 95.616371,250.780914 
	C91.384369,250.781921 92.132957,255.134567 91.756134,257.788330 
	C91.360176,249.778397 91.360176,249.778397 83.960518,248.351761 
	C83.960518,245.113815 83.828438,241.800583 83.998924,238.503006 
	C84.158569,235.415009 83.253868,233.682907 79.822746,234.004059 
	C78.735466,234.105804 77.614197,233.844437 76.165260,233.719696 
	C76.165260,229.440140 76.064194,225.466156 76.249329,221.505554 
	C76.286995,220.699753 77.402260,219.944321 78.013351,219.585632 
	C77.854729,221.621201 77.836884,223.262711 77.528839,224.847809 
	C76.300117,231.170380 78.299324,232.952072 84.652412,231.417664 
	C86.948380,232.952209 89.126923,234.064407 92.093933,235.579132 
	C92.093933,239.427826 92.093933,244.176407 92.093933,248.914200 
	C93.274010,249.108337 93.948242,249.384323 94.570122,249.295166 
	C99.062546,248.651108 100.504585,250.640945 100.039871,254.964996 
	C99.685638,258.260956 99.902046,261.618225 99.864601,264.948242 
M86.285362,236.130356 
	C85.901283,239.576202 85.410423,243.017410 85.260437,246.473404 
	C85.240387,246.935532 86.989563,247.931564 87.838158,247.848633 
	C88.727852,247.761703 90.095642,246.784988 90.248177,246.001297 
	C90.741455,243.466843 90.920761,240.843552 90.940742,238.252319 
	C90.961555,235.552444 89.530403,234.733902 86.285362,236.130356 
z"/>
<path fill="#397292" opacity="1.000000" stroke="none" 
	d="
M127.252052,59.198879 
	C127.034889,59.461674 126.817734,59.724472 126.315361,59.568413 
	C126.021965,42.172588 125.885666,25.194025 126.097115,8.219794 
	C126.148933,4.059481 124.924835,2.891877 120.776421,2.908305 
	C81.525063,3.063739 42.272892,3.013419 3.015082,2.685340 
	C3.006137,1.898871 3.003068,1.449436 3.000000,1.000000 
	C44.020893,1.000000 85.041786,1.000000 126.527924,1.468662 
	C127.079453,21.024509 127.165749,40.111694 127.252052,59.198879 
z"/>
<path fill="#C1C1C1" opacity="1.000000" stroke="none" 
	d="
M2.244584,199.821671 
	C2.038837,199.863144 1.833091,199.904617 1.313672,199.973053 
	C1.000000,157.979111 1.000000,115.958214 1.000000,73.468658 
	C1.000000,73.000000 1.467812,72.867867 1.729049,73.389694 
	C1.991249,110.890175 1.982797,147.868820 2.004312,184.847473 
	C2.007216,189.838913 2.160782,194.830276 2.244584,199.821671 
z"/>
<path fill="#346698" opacity="1.000000" stroke="none" 
	d="
M78.463181,273.000000 
	C78.884453,270.549591 75.653328,266.274445 81.374390,265.958527 
	C89.685913,265.499512 90.177895,265.662964 91.072571,271.987000 
	C91.095856,272.610809 91.000000,273.000000 91.000000,273.000000 
	C86.975456,273.000000 82.950912,273.000000 78.463181,273.000000 
z"/>
<path fill="#3B708C" opacity="1.000000" stroke="none" 
	d="
M2.750000,1.000000 
	C3.003068,1.449436 3.006137,1.898871 3.008583,3.151444 
	C3.006664,19.013622 2.872131,34.074627 3.093581,49.130390 
	C3.152209,53.116264 4.306893,57.086014 4.958303,61.063168 
	C4.020257,60.607792 3.082211,60.152416 2.042152,58.949024 
	C1.960093,39.134007 1.980047,20.067003 2.000000,1.000000 
	C2.000000,1.000000 2.500000,1.000000 2.750000,1.000000 
z"/>
<path fill="#8BB8D0" opacity="1.000000" stroke="none" 
	d="
M1.500000,1.000000 
	C1.980047,20.067003 1.960093,39.134007 1.878380,58.677029 
	C1.816621,59.153049 1.386802,59.191284 1.193401,59.095642 
	C1.000000,39.666668 1.000000,20.333334 1.500000,1.000000 
z"/>
<path fill="#98B4C5" opacity="1.000000" stroke="none" 
	d="
M127.464905,59.246437 
	C127.165749,40.111694 127.079453,21.024509 126.996582,1.468662 
	C127.333336,2.155453 127.953133,3.309921 127.957108,4.466507 
	C128.018539,22.331738 128.000000,40.197243 128.000000,58.531342 
	C128.000000,59.000000 127.677757,59.293995 127.464905,59.246437 
z"/>
<path fill="#FCFDFD" opacity="1.000000" stroke="none" 
	d="
M91.416664,273.000000 
	C91.000000,273.000000 91.095856,272.610809 91.105759,272.410522 
	C91.439423,270.745392 92.116501,269.254242 92.009979,267.821381 
	C91.815834,265.210022 93.095177,264.804291 95.588684,265.129242 
	C96.006332,267.551636 96.007927,269.905792 96.004761,272.629974 
	C94.611107,273.000000 93.222221,273.000000 91.416664,273.000000 
z"/>
<path fill="#040404" opacity="1.000000" stroke="none" 
	d="
M2.697567,199.829880 
	C2.160782,194.830276 2.007216,189.838913 2.004312,184.847473 
	C1.982797,147.868820 1.991249,110.890175 1.966500,73.441597 
	C7.600863,78.235252 13.366572,83.388596 18.896275,88.783821 
	C33.416916,102.951363 47.833797,117.225243 62.297050,131.451645 
	C62.875515,132.020630 63.505363,132.537384 65.553902,134.366776 
	C85.383698,113.486725 105.138481,92.685654 124.893272,71.884590 
	C125.461044,72.276085 126.028824,72.667587 126.596603,73.059082 
	C126.685059,74.770187 126.773514,76.481293 126.959969,78.596497 
	C126.984962,103.085167 126.894447,127.169716 126.845131,151.254349 
	C126.812492,167.192627 126.838951,183.131027 126.838951,199.858704 
	C121.731369,199.858704 116.823418,199.858704 111.023041,199.858948 
	C107.753876,199.901459 105.377136,199.943695 102.720436,199.706085 
	C102.273994,197.283966 102.107498,195.141678 102.039291,192.539841 
	C102.137573,171.803421 102.137573,151.526581 102.137573,131.249725 
	C101.685356,131.020752 101.233139,130.791794 100.780922,130.562820 
	C90.853210,140.706528 80.925499,150.850250 70.691910,161.099335 
	C68.958183,162.761063 67.530350,164.317413 65.819290,165.919983 
	C65.352745,166.020889 65.169411,166.075577 64.605789,166.028336 
	C63.088795,163.462402 61.952099,160.998367 60.619457,158.109589 
	C55.932858,159.121170 53.206650,157.194031 53.719887,151.678513 
	C53.733116,151.536331 53.226196,151.345749 52.591896,151.111923 
	C51.471687,151.074951 50.721436,151.103790 49.656456,151.054993 
	C48.553345,150.650986 47.764961,150.324615 46.957397,149.582184 
	C46.856701,147.784393 46.775177,146.402664 46.736877,144.662292 
	C45.533302,143.923462 44.286499,143.543289 42.618187,143.105682 
	C36.481087,143.366135 40.592445,137.824280 37.951473,136.133270 
	C35.875858,135.931396 33.628761,135.712830 31.429825,135.498962 
	C31.163469,132.788849 30.942379,130.539307 30.701721,128.090668 
	C28.999125,128.176544 27.739481,128.240082 25.915312,128.332092 
	C25.915312,152.361694 25.915312,176.111694 25.915312,199.861725 
	C18.327059,199.853836 10.738805,199.845963 2.697567,199.829880 
z"/>
<path fill="#25739D" opacity="1.000000" stroke="none" 
	d="
M4.965965,61.041206 
	C4.306893,57.086014 3.152209,53.116264 3.093581,49.130390 
	C2.872131,34.074627 3.006664,19.013622 3.014459,3.488477 
	C42.272892,3.013419 81.525063,3.063739 120.776421,2.908305 
	C124.924835,2.891877 126.148933,4.059481 126.097115,8.219794 
	C125.885666,25.194025 126.021965,42.172588 126.060097,59.624538 
	C126.090042,60.099522 126.058617,60.049068 125.855133,60.108490 
	C125.350433,60.311115 125.133110,60.535557 124.999695,60.841236 
	C124.999695,60.841236 124.653152,61.057331 124.072830,61.046753 
	C122.671867,61.708664 121.851227,62.381157 121.030586,63.053650 
	C121.030586,63.053650 121.004791,62.998043 120.711769,63.023201 
	C119.972069,63.431007 119.525391,63.813656 119.078712,64.196304 
	C119.078712,64.196304 119.064880,64.084007 118.867531,64.143936 
	C118.441238,64.450150 118.212288,64.696442 117.983345,64.942726 
	C117.983345,64.942726 117.801514,65.160324 117.345261,65.188416 
	C116.598465,65.504814 116.307922,65.793137 116.017387,66.081459 
	C115.588753,66.388550 115.160126,66.695641 114.055481,67.009232 
	C111.942711,68.048828 110.505951,69.081924 109.069199,70.115021 
	C109.069199,70.115021 109.032997,70.034889 108.835594,70.107849 
	C108.330345,70.337189 108.108948,70.574295 107.973984,70.892120 
	C107.973984,70.892120 107.719780,71.118080 107.188477,71.104485 
	C106.179916,71.522293 105.702660,71.953705 105.225410,72.385117 
	C105.225410,72.385117 105.168533,72.244652 104.958694,72.264313 
	C104.513000,72.559113 104.277153,72.834236 104.041306,73.109367 
	C104.041306,73.109367 104.028679,73.025307 103.740952,73.044037 
	C103.001183,73.450439 102.549141,73.838112 102.097099,74.225784 
	C102.097099,74.225784 102.076370,74.101326 101.877686,74.161804 
	C101.451859,74.482285 101.224724,74.742271 100.997581,75.002266 
	C100.997581,75.002266 101.000000,74.999657 100.696930,75.013023 
	C99.936539,75.374756 99.479218,75.723129 99.021904,76.071495 
	C99.021904,76.071495 99.009186,76.004890 98.812943,76.083168 
	C98.325317,76.313675 98.114105,76.540558 97.983063,76.842094 
	C97.983063,76.842094 97.669563,77.066956 97.082901,77.055145 
	C95.147972,77.204254 93.799706,77.365181 92.239182,77.551437 
	C92.114655,76.092957 92.021049,74.996727 91.927444,73.900497 
	C91.927444,73.900497 91.970909,73.986000 92.311249,73.919861 
	C93.744995,69.203659 94.838394,64.553596 95.931793,59.903530 
	C95.931793,59.903530 95.970688,59.973473 96.240723,59.785328 
	C100.191086,49.199669 104.121155,38.861797 105.131020,27.826504 
	C104.608536,27.627071 104.086060,27.427639 103.563583,27.228209 
	C102.723221,28.867186 101.882866,30.506163 101.042511,32.145142 
	C101.042511,32.145142 100.965843,32.585320 100.688248,32.916557 
	C100.184242,33.466740 100.055305,33.732903 100.023849,34.046284 
	C100.023849,34.046284 99.997421,34.002522 99.783958,34.115646 
	C99.394554,34.518902 99.218620,34.809040 99.042686,35.099178 
	C99.042686,35.099178 99.022942,35.019913 98.701157,35.070602 
	C97.936401,36.105629 97.493423,37.089970 97.050446,38.074310 
	C97.050446,38.074310 97.007339,38.012196 96.797432,38.133934 
	C96.431129,38.570938 96.274727,38.886200 96.118332,39.201462 
	C96.118332,39.201462 96.098938,39.076878 95.866531,39.194824 
	C95.422287,39.875137 95.210442,40.437500 94.998589,40.999863 
	C94.998589,40.999863 95.000000,41.000000 94.770004,41.116051 
	C94.379860,41.528194 94.219719,41.824291 94.059570,42.120384 
	C94.059570,42.120384 94.041962,42.041763 93.813660,42.172935 
	C93.425209,42.657059 93.265068,43.010014 93.104919,43.362968 
	C92.912872,43.837944 92.720833,44.312923 92.048660,45.008766 
	C91.401894,45.532410 91.235260,45.835197 91.068619,46.137985 
	C91.068626,46.137989 91.056000,46.048248 90.735306,46.086662 
	C89.954536,47.100712 89.494461,48.076347 89.034393,49.051983 
	C89.034393,49.051983 88.998459,49.005211 88.786469,49.123672 
	C88.407379,49.543934 88.240280,49.845734 88.073181,50.147537 
	C88.073189,50.147537 88.065453,50.058414 87.742912,50.091949 
	C86.963402,51.107574 86.506424,52.089661 86.049454,53.071747 
	C86.049454,53.071747 86.006783,53.011150 85.789772,53.146107 
	C85.411972,53.612625 85.251175,53.944187 85.090378,54.275749 
	C84.884735,54.758850 84.679092,55.241951 84.008850,55.975166 
	C83.381615,56.522034 83.218987,56.818790 83.056366,57.115547 
	C83.056358,57.115547 83.036873,57.037170 82.821701,57.151421 
	C82.458405,57.591610 82.310280,57.917542 82.162155,58.243477 
	C82.162163,58.243477 82.136353,58.106464 81.899063,58.214912 
	C81.447098,58.893147 81.232407,59.462933 81.017723,60.032719 
	C81.017723,60.032719 80.996193,60.002048 80.778610,60.121727 
	C80.398834,60.543411 80.236649,60.845417 80.074463,61.147427 
	C80.074463,61.147427 80.061081,61.056999 79.728699,61.079208 
	C78.629471,62.444530 77.862625,63.787643 77.095779,65.130760 
	C77.095787,65.130760 77.043228,65.029533 76.710175,65.063843 
	C75.440720,65.273087 74.504326,65.448006 73.560249,65.624359 
	C70.755226,47.616070 70.058731,29.487835 64.737251,12.242425 
	C64.164902,12.305087 63.592556,12.367749 63.020206,12.430411 
	C60.615040,30.278999 58.209869,48.127586 55.791847,66.071564 
	C54.789936,66.071564 53.840282,66.071564 52.890625,66.071564 
	C52.890625,66.071564 52.970219,66.031273 52.888161,65.828323 
	C52.551067,65.410652 52.296028,65.195930 52.040989,64.981209 
	C51.697048,64.590942 51.353107,64.200676 50.897858,63.271282 
	C50.502846,62.496719 50.219139,62.261276 49.935432,62.025837 
	C49.935432,62.025837 49.998463,62.007370 49.907837,61.801968 
	C49.646786,61.298077 49.400188,61.089748 49.077415,60.971584 
	C49.077415,60.971584 49.004257,60.969490 48.994125,60.641014 
	C48.604588,59.895050 48.225185,59.477562 47.845787,59.060074 
	C47.845787,59.060074 47.933723,59.049011 47.944801,58.711014 
	C47.216492,57.650555 46.477104,56.928089 45.737720,56.205627 
	C45.737720,56.205627 45.826080,56.136261 45.782928,55.914997 
	C45.445034,55.484024 45.150295,55.274315 44.855553,55.064606 
	C44.855553,55.064606 44.944538,55.052959 44.862576,54.843933 
	C44.508564,54.423763 44.236511,54.212620 43.964462,54.001472 
	C43.629791,53.631519 43.295120,53.261566 42.867455,52.340355 
	C42.476860,51.540230 42.179260,51.291359 41.881660,51.042488 
	C41.881660,51.042488 41.961552,51.040337 41.882812,50.834316 
	C41.550621,50.412113 41.297165,50.195927 41.043709,49.979740 
	C41.043709,49.979740 40.994175,49.989502 40.977879,49.658794 
	C40.548641,48.914898 40.135704,48.501705 39.722763,48.088516 
	C35.423294,42.481136 31.123825,36.873753 26.824356,31.266373 
	C26.501093,31.392464 26.177828,31.518555 25.854565,31.644646 
	C30.515387,48.050079 35.176208,64.455513 40.207325,82.164345 
	C30.284813,76.317619 21.307064,71.027596 12.005980,65.172539 
	C11.104057,64.413635 10.525469,64.219765 9.946880,64.025894 
	C9.946879,64.025894 9.995620,63.997326 9.846987,63.767200 
	C9.153133,63.344486 8.607914,63.151894 8.062695,62.959301 
	C8.062695,62.959301 8.022298,63.006130 7.892874,62.757065 
	C7.464846,62.360344 7.166243,62.212692 6.867640,62.065037 
	C6.867640,62.065037 6.959492,62.049290 6.816850,61.813549 
	C6.093472,61.397667 5.512734,61.217522 4.931997,61.037380 
	C4.931997,61.037380 4.973626,61.019241 4.965965,61.041206 
z"/>
<path fill="#397292" opacity="1.000000" stroke="none" 
	d="
M52.989090,66.417709 
	C53.840282,66.071564 54.789936,66.071564 55.791847,66.071564 
	C58.209869,48.127586 60.615040,30.278999 63.020206,12.430411 
	C63.592556,12.367749 64.164902,12.305087 64.737251,12.242425 
	C70.058731,29.487835 70.755226,47.616070 73.560249,65.624359 
	C74.504326,65.448006 75.440720,65.273087 76.758621,65.093933 
	C76.008568,66.851425 74.877014,68.613144 73.059563,71.442726 
	C70.399551,53.526165 67.920723,36.830040 65.441902,20.133911 
	C64.875549,20.160963 64.309196,20.188015 63.742844,20.215065 
	C61.407722,36.743027 59.072598,53.270985 56.557125,71.075455 
	C54.964447,69.096252 54.026001,67.930054 52.989090,66.417709 
z"/>
<path fill="#397292" opacity="1.000000" stroke="none" 
	d="
M101.427948,32.111435 
	C101.882866,30.506163 102.723221,28.867186 103.563583,27.228209 
	C104.086060,27.427639 104.608536,27.627071 105.131020,27.826504 
	C104.121155,38.861797 100.191086,49.199669 96.200714,59.785137 
	C98.064323,51.701206 100.279106,43.439606 102.353622,35.142933 
	C102.583473,34.223701 102.012794,33.104301 101.427948,32.111435 
z"/>
<path fill="#397292" opacity="1.000000" stroke="none" 
	d="
M95.648727,60.148529 
	C94.838394,64.553596 93.744995,69.203659 92.269104,73.896988 
	C93.046295,69.424675 94.205986,64.909103 95.648727,60.148529 
z"/>
<path fill="#397292" opacity="1.000000" stroke="none" 
	d="
M91.644577,74.134888 
	C92.021049,74.996727 92.114655,76.092957 92.239182,77.551437 
	C93.799706,77.365181 95.147972,77.204254 96.890533,77.069550 
	C95.022667,78.558334 92.760498,80.020905 89.403839,82.191109 
	C90.273537,78.716591 90.817612,76.542938 91.644577,74.134888 
z"/>
<path fill="#397292" opacity="1.000000" stroke="none" 
	d="
M109.405678,70.060471 
	C110.505951,69.081924 111.942711,68.048828 113.777039,67.036896 
	C112.697136,68.040688 111.219650,69.023308 109.405678,70.060471 
z"/>
<path fill="#397292" opacity="1.000000" stroke="none" 
	d="
M77.391785,64.994980 
	C77.862625,63.787643 78.629471,62.444530 79.770447,61.097824 
	C79.325645,62.349220 78.506721,63.604210 77.391785,64.994980 
z"/>
<path fill="#397292" opacity="1.000000" stroke="none" 
	d="
M45.803780,56.514030 
	C46.477104,56.928089 47.216492,57.650555 47.929245,58.752510 
	C47.225025,58.362144 46.547432,57.592285 45.803780,56.514030 
z"/>
<path fill="#397292" opacity="1.000000" stroke="none" 
	d="
M89.317825,48.916138 
	C89.494461,48.076347 89.954536,47.100712 90.775948,46.106689 
	C90.625282,46.985630 90.113274,47.882957 89.317825,48.916138 
z"/>
<path fill="#397292" opacity="1.000000" stroke="none" 
	d="
M97.339996,37.943081 
	C97.493423,37.089970 97.936401,36.105629 98.737900,35.088436 
	C98.607468,35.974339 98.118515,36.893093 97.339996,37.943081 
z"/>
<path fill="#397292" opacity="1.000000" stroke="none" 
	d="
M121.350830,62.999783 
	C121.851227,62.381157 122.671867,61.708664 123.869171,61.061455 
	C123.387581,61.706463 122.529327,62.326187 121.350830,62.999783 
z"/>
<path fill="#397292" opacity="1.000000" stroke="none" 
	d="
M86.337502,52.941315 
	C86.506424,52.089661 86.963402,51.107574 87.783981,50.109657 
	C87.640244,50.999512 87.132896,51.905197 86.337502,52.941315 
z"/>
<path fill="#397292" opacity="1.000000" stroke="none" 
	d="
M105.544426,72.322418 
	C105.702660,71.953705 106.179916,71.522293 107.018433,71.106079 
	C106.874275,71.500748 106.368858,71.880234 105.544426,72.322418 
z"/>
<path fill="#397292" opacity="1.000000" stroke="none" 
	d="
M47.910786,59.340466 
	C48.225185,59.477562 48.604588,59.895050 49.016396,60.611977 
	C48.691132,60.481232 48.333458,60.051044 47.910786,59.340466 
z"/>
<path fill="#397292" opacity="1.000000" stroke="none" 
	d="
M95.259247,40.855537 
	C95.210442,40.437500 95.422287,39.875137 95.928818,39.204552 
	C95.988976,39.634624 95.754433,40.172916 95.259247,40.855537 
z"/>
<path fill="#397292" opacity="1.000000" stroke="none" 
	d="
M81.282791,59.892029 
	C81.232407,59.462933 81.447098,58.893147 81.967377,58.228798 
	C82.031273,58.673271 81.789566,59.212307 81.282791,59.892029 
z"/>
<path fill="#3B708C" opacity="1.000000" stroke="none" 
	d="
M10.099014,64.292557 
	C10.525469,64.219765 11.104057,64.413635 11.821674,64.891098 
	C11.390852,64.969536 10.821000,64.764374 10.099014,64.292557 
z"/>
<path fill="#397292" opacity="1.000000" stroke="none" 
	d="
M102.400291,74.172348 
	C102.549141,73.838112 103.001183,73.450439 103.777016,73.066513 
	C103.635040,73.419815 103.169258,73.769363 102.400291,74.172348 
z"/>
<path fill="#397292" opacity="1.000000" stroke="none" 
	d="
M119.382874,64.154739 
	C119.525391,63.813656 119.972069,63.431007 120.736038,63.041985 
	C120.597893,63.394802 120.142464,63.753990 119.382874,64.154739 
z"/>
<path fill="#3B708C" opacity="1.000000" stroke="none" 
	d="
M8.236443,63.191490 
	C8.607914,63.151894 9.153133,63.344486 9.844587,63.795349 
	C9.463945,63.843639 8.937068,63.633656 8.236443,63.191490 
z"/>
<path fill="#397292" opacity="1.000000" stroke="none" 
	d="
M39.812790,48.369820 
	C40.135704,48.501705 40.548641,48.914898 40.995773,49.640862 
	C40.654251,49.519463 40.278538,49.085289 39.812790,48.369820 
z"/>
<path fill="#3B708C" opacity="1.000000" stroke="none" 
	d="
M5.073718,61.312466 
	C5.512734,61.217522 6.093472,61.397667 6.814785,61.860100 
	C6.375386,61.957443 5.795412,61.772499 5.073718,61.312466 
z"/>
<path fill="#397292" opacity="1.000000" stroke="none" 
	d="
M99.315582,76.031647 
	C99.479218,75.723129 99.936539,75.374756 100.699066,75.012726 
	C100.539268,75.329971 100.074265,75.660889 99.315582,76.031647 
z"/>
<path fill="#397292" opacity="1.000000" stroke="none" 
	d="
M80.326462,61.049911 
	C80.236649,60.845417 80.398834,60.543411 80.796898,60.125488 
	C80.881340,60.323849 80.729904,60.638123 80.326462,61.049911 
z"/>
<path fill="#397292" opacity="1.000000" stroke="none" 
	d="
M91.324036,46.045914 
	C91.235260,45.835197 91.401894,45.532410 91.809639,45.119511 
	C91.893646,45.324211 91.736549,45.639027 91.324036,46.045914 
z"/>
<path fill="#397292" opacity="1.000000" stroke="none" 
	d="
M125.256889,60.847603 
	C125.133110,60.535557 125.350433,60.311115 125.884216,60.112907 
	C125.915878,60.323257 125.714981,60.588615 125.256889,60.847603 
z"/>
<path fill="#397292" opacity="1.000000" stroke="none" 
	d="
M100.257797,33.957382 
	C100.055305,33.732903 100.184242,33.466740 100.597443,33.120674 
	C100.686737,33.285194 100.589241,33.576836 100.257797,33.957382 
z"/>
<path fill="#397292" opacity="1.000000" stroke="none" 
	d="
M93.369102,43.229698 
	C93.265068,43.010014 93.425209,42.657059 93.853928,42.174000 
	C93.959427,42.394737 93.796349,42.745583 93.369102,43.229698 
z"/>
<path fill="#397292" opacity="1.000000" stroke="none" 
	d="
M99.294006,35.009605 
	C99.218620,34.809040 99.394554,34.518902 99.808121,34.123932 
	C99.878944,34.319405 99.712135,34.619717 99.294006,35.009605 
z"/>
<path fill="#397292" opacity="1.000000" stroke="none" 
	d="
M94.309311,42.025787 
	C94.219719,41.824291 94.379860,41.528194 94.769737,41.115311 
	C94.852669,41.309414 94.705856,41.620300 94.309311,42.025787 
z"/>
<path fill="#397292" opacity="1.000000" stroke="none" 
	d="
M96.374939,39.103798 
	C96.274727,38.886200 96.431129,38.570938 96.834175,38.142822 
	C96.931068,38.355362 96.781311,38.680748 96.374939,39.103798 
z"/>
<path fill="#397292" opacity="1.000000" stroke="none" 
	d="
M41.949852,51.330902 
	C42.179260,51.291359 42.476860,51.540230 42.831406,52.083641 
	C42.598251,52.125233 42.308151,51.872272 41.949852,51.330902 
z"/>
<path fill="#397292" opacity="1.000000" stroke="none" 
	d="
M104.312866,73.066368 
	C104.277153,72.834236 104.513000,72.559113 105.032722,72.280464 
	C105.072548,72.525757 104.828491,72.774567 104.312866,73.066368 
z"/>
<path fill="#397292" opacity="1.000000" stroke="none" 
	d="
M82.420959,58.143387 
	C82.310280,57.917542 82.458405,57.591610 82.861771,57.156433 
	C82.971260,57.379223 82.825516,57.711262 82.420959,58.143387 
z"/>
<path fill="#397292" opacity="1.000000" stroke="none" 
	d="
M101.271561,74.974319 
	C101.224724,74.742271 101.451859,74.482285 101.940094,74.171059 
	C101.982628,74.395340 101.764084,74.670853 101.271561,74.974319 
z"/>
<path fill="#397292" opacity="1.000000" stroke="none" 
	d="
M98.237923,76.839935 
	C98.114105,76.540558 98.325317,76.313675 98.843887,76.097038 
	C98.878304,76.301018 98.685539,76.569397 98.237923,76.839935 
z"/>
<path fill="#397292" opacity="1.000000" stroke="none" 
	d="
M83.307175,57.021927 
	C83.218987,56.818790 83.381615,56.522034 83.776810,56.110950 
	C83.858917,56.307186 83.708458,56.617744 83.307175,57.021927 
z"/>
<path fill="#397292" opacity="1.000000" stroke="none" 
	d="
M44.928612,55.331608 
	C45.150295,55.274315 45.445034,55.484024 45.789894,55.970734 
	C45.560562,56.031357 45.281116,55.814983 44.928612,55.331608 
z"/>
<path fill="#397292" opacity="1.000000" stroke="none" 
	d="
M44.015045,54.269951 
	C44.236511,54.212620 44.508564,54.423763 44.856419,54.888382 
	C44.643360,54.940712 44.354492,54.739571 44.015045,54.269951 
z"/>
<path fill="#397292" opacity="1.000000" stroke="none" 
	d="
M108.238281,70.883789 
	C108.108948,70.574295 108.330345,70.337189 108.878082,70.119141 
	C108.912842,70.330132 108.707710,70.602791 108.238281,70.883789 
z"/>
<path fill="#397292" opacity="1.000000" stroke="none" 
	d="
M85.344574,54.151081 
	C85.251175,53.944187 85.411972,53.612625 85.825943,53.154160 
	C85.919006,53.360310 85.758888,53.693359 85.344574,54.151081 
z"/>
<path fill="#397292" opacity="1.000000" stroke="none" 
	d="
M49.106010,61.230133 
	C49.400188,61.089748 49.646786,61.298077 49.892685,61.831108 
	C49.690315,61.873325 49.412460,61.681000 49.106010,61.230133 
z"/>
<path fill="#397292" opacity="1.000000" stroke="none" 
	d="
M116.323959,66.021042 
	C116.307922,65.793137 116.598465,65.504814 117.204178,65.174362 
	C117.223076,65.408356 116.926804,65.684494 116.323959,66.021042 
z"/>
<path fill="#397292" opacity="1.000000" stroke="none" 
	d="
M52.078316,65.243942 
	C52.296028,65.195930 52.551067,65.410652 52.875748,65.871170 
	C52.668804,65.913528 52.392223,65.710098 52.078316,65.243942 
z"/>
<path fill="#397292" opacity="1.000000" stroke="none" 
	d="
M118.253937,64.928177 
	C118.212288,64.696442 118.441238,64.450150 118.923294,64.153503 
	C118.959114,64.373306 118.741829,64.643463 118.253937,64.928177 
z"/>
<path fill="#397292" opacity="1.000000" stroke="none" 
	d="
M41.078926,50.243271 
	C41.297165,50.195927 41.550621,50.412113 41.874649,50.873432 
	C41.668194,50.914646 41.391167,50.710724 41.078926,50.243271 
z"/>
<path fill="#397292" opacity="1.000000" stroke="none" 
	d="
M88.329346,50.056435 
	C88.240280,49.845734 88.407379,49.543934 88.814926,49.131390 
	C88.898750,49.335541 88.742126,49.650440 88.329346,50.056435 
z"/>
<path fill="#397292" opacity="1.000000" stroke="none" 
	d="
M49.996693,62.304302 
	C50.219139,62.261276 50.502846,62.496719 50.850285,63.008846 
	C50.628662,63.051281 50.343307,62.817024 49.996693,62.304302 
z"/>
<path fill="#3B708C" opacity="1.000000" stroke="none" 
	d="
M6.970727,62.312809 
	C7.166243,62.212692 7.464846,62.360344 7.894531,62.726192 
	C7.708347,62.816452 7.391081,62.688519 6.970727,62.312809 
z"/>
<path fill="#3E668D" opacity="1.000000" stroke="none" 
	d="
M25.943672,200.339935 
	C25.915312,176.111694 25.915312,152.361694 25.915312,128.332092 
	C27.739481,128.240082 28.999125,128.176544 30.701721,128.090668 
	C30.942379,130.539307 31.163469,132.788849 31.429825,135.498962 
	C33.628761,135.712830 35.875858,135.931396 37.951473,136.133270 
	C40.592445,137.824280 36.481087,143.366135 42.809132,143.334259 
	C44.512272,144.087143 45.602959,144.554031 46.693649,145.020920 
	C46.775177,146.402664 46.856701,147.784393 46.611774,149.585754 
	C45.824692,150.019104 45.364063,150.032837 44.494705,150.038025 
	C38.769505,150.822815 37.786739,147.287964 37.722076,143.231705 
	C35.044300,143.231705 32.779743,143.231705 30.441599,143.231705 
	C30.316309,143.906372 30.153214,144.373474 30.153748,144.840378 
	C30.192007,178.274338 30.222183,211.708359 30.364340,245.141907 
	C30.370556,246.603958 31.412861,248.061600 32.317631,249.710602 
	C34.818752,249.945908 36.974789,249.991882 39.130821,250.037872 
	C39.130821,252.347748 39.130821,254.657623 39.130821,257.406616 
	C34.676933,257.406616 30.652224,257.406616 25.972033,257.406616 
	C25.972033,238.578339 25.972033,219.698257 25.943672,200.339935 
z"/>
<path fill="#396998" opacity="1.000000" stroke="none" 
	d="
M66.987549,248.986313 
	C65.357529,248.986710 63.727505,248.987106 61.691715,248.982773 
	C61.220703,247.255905 61.155457,245.533752 61.369301,243.189774 
	C61.513439,241.722885 61.378490,240.877808 61.243542,240.032745 
	C61.197460,239.574600 61.151379,239.116470 61.310719,238.225861 
	C61.694462,237.461639 61.604340,237.203979 61.245781,237.020401 
	C61.177055,236.577988 61.108326,236.135574 61.307312,235.357819 
	C62.389824,234.786606 63.204628,234.550735 64.383255,234.236206 
	C65.486092,234.210754 66.225090,234.263962 66.973404,234.731750 
	C66.994461,237.096558 67.006218,239.046783 67.012970,241.441010 
	C67.001160,244.252121 66.994354,246.619217 66.987549,248.986313 
z"/>
<path fill="#4F779E" opacity="1.000000" stroke="none" 
	d="
M39.568886,250.051117 
	C36.974789,249.991882 34.818752,249.945908 32.771481,249.717407 
	C34.468895,249.420364 36.057545,249.305832 37.868217,249.175308 
	C38.028896,246.824661 38.171368,244.740433 38.281666,243.126892 
	C41.367786,242.800705 44.212009,242.500076 47.049706,242.370819 
	C47.043171,242.542175 46.971954,242.877655 46.971954,242.877655 
	C46.971954,244.987869 46.971954,247.098068 46.971954,250.064377 
	C44.403065,250.064377 42.205006,250.064377 39.568886,250.051117 
z"/>
<path fill="#3E6B97" opacity="1.000000" stroke="none" 
	d="
M47.381920,242.819977 
	C46.971954,242.877655 47.043171,242.542175 47.075840,241.943481 
	C46.685600,239.111115 46.262695,236.877457 45.776211,234.307983 
	C49.123447,234.127747 51.534893,233.997894 53.969524,234.171783 
	C54.005264,234.678192 54.017822,234.880890 54.030373,235.083572 
	C53.725243,235.977951 52.939243,237.046539 53.190285,237.739410 
	C55.398369,243.833755 50.971558,242.594528 47.381920,242.819977 
z"/>
<path fill="#426A92" opacity="1.000000" stroke="none" 
	d="
M54.405510,235.049591 
	C54.017822,234.880890 54.005264,234.678192 53.915642,233.729919 
	C53.838577,231.108917 53.838577,229.233490 53.838577,227.147537 
	C56.184898,227.147537 58.089413,227.147537 59.996502,227.490723 
	C60.277107,228.879517 60.555145,229.925110 60.902706,231.301758 
	C61.004154,232.082565 61.036079,232.532364 60.766220,233.106323 
	C59.319263,233.763626 58.174088,234.296738 57.028915,234.829849 
	C56.279491,234.891769 55.530064,234.953705 54.405510,235.049591 
z"/>
<path fill="#486E94" opacity="1.000000" stroke="none" 
	d="
M57.411591,234.906082 
	C58.174088,234.296738 59.319263,233.763626 61.065014,233.246857 
	C62.450203,233.613770 63.234818,233.964325 64.019432,234.314880 
	C63.204628,234.550735 62.389824,234.786606 61.245350,235.026672 
	C59.875210,235.014679 58.834736,234.998489 57.411591,234.906082 
z"/>
<path fill="#486E94" opacity="1.000000" stroke="none" 
	d="
M61.160019,240.393677 
	C61.378490,240.877808 61.513439,241.722885 61.443119,242.762985 
	C61.184063,242.223557 61.130280,241.489090 61.160019,240.393677 
z"/>
<path fill="#486E94" opacity="1.000000" stroke="none" 
	d="
M61.179985,237.260132 
	C61.604340,237.203979 61.694462,237.461639 61.381958,237.886093 
	C61.247772,237.978806 61.114185,237.499878 61.179985,237.260132 
z"/>
<path fill="#346799" opacity="1.000000" stroke="none" 
	d="
M84.534988,230.995300 
	C78.299324,232.952072 76.300117,231.170380 77.528839,224.847809 
	C77.836884,223.262711 77.854729,221.621201 78.344940,219.525070 
	C79.129578,219.087479 79.575211,219.130432 80.341827,219.431564 
	C89.099060,219.522614 97.535316,219.355499 106.327278,218.959824 
	C106.773102,216.738770 106.863220,214.746277 107.399170,212.658966 
	C110.092941,212.675766 112.340889,212.787369 114.699768,212.904480 
	C114.866570,214.492020 114.999763,215.759674 115.040596,217.008026 
	C114.948235,216.988739 114.760994,216.965332 114.546791,217.228348 
	C114.476059,218.982208 114.619530,220.473053 114.763000,221.963898 
	C114.834183,222.417786 114.905365,222.871674 114.975113,223.989136 
	C114.904083,225.096405 114.834480,225.540100 114.310982,225.987610 
	C106.437660,225.995041 99.016907,225.921326 91.599655,226.049896 
	C89.400230,226.088013 87.210678,226.695511 84.931877,227.432922 
	C84.743095,228.880920 84.639038,229.938110 84.534988,230.995300 
z"/>
<path fill="#FCFDFD" opacity="1.000000" stroke="none" 
	d="
M84.652420,231.417664 
	C84.639038,229.938110 84.743095,228.880920 85.391296,227.425079 
	C89.624664,227.079285 93.313896,227.132111 97.003128,227.184952 
	C96.077957,229.549683 94.520607,231.848312 96.601875,234.433167 
	C96.930199,234.840958 96.991516,235.915482 96.689964,236.310165 
	C92.847130,241.340088 95.949074,244.163498 99.653702,247.319016 
	C102.347176,249.613281 104.342918,252.726669 106.609428,255.426819 
	C104.568329,258.659058 102.597992,261.779266 100.246124,264.923859 
	C99.902046,261.618225 99.685638,258.260956 100.039871,254.964996 
	C100.504585,250.640945 99.062546,248.651108 94.570122,249.295166 
	C93.948242,249.384323 93.274010,249.108337 92.093933,248.914200 
	C92.093933,244.176407 92.093933,239.427826 92.093933,235.579132 
	C89.126923,234.064407 86.948380,232.952209 84.652420,231.417664 
z"/>
<path fill="#FCFDFD" opacity="1.000000" stroke="none" 
	d="
M115.132950,217.027313 
	C114.999763,215.759674 114.866570,214.492020 114.699768,212.904480 
	C112.340889,212.787369 110.092941,212.675766 107.422043,212.609711 
	C106.999084,212.655258 107.025276,212.548737 107.196838,212.084305 
	C107.204353,209.096436 107.040314,206.573013 107.211403,204.059174 
	C108.697533,204.712524 109.848526,205.356262 110.999527,206.000000 
	C110.929405,209.534302 113.253304,209.925720 115.999878,209.894653 
	C116.961700,209.883774 117.926910,210.173004 118.799301,210.962952 
	C117.516327,213.409561 116.324638,215.218430 115.132950,217.027313 
z"/>
<path fill="#FCFDFD" opacity="1.000000" stroke="none" 
	d="
M120.999695,227.000000 
	C124.982719,228.677185 122.704857,231.427597 121.291504,232.727249 
	C119.786537,234.111145 117.076782,236.820877 115.332825,232.207199 
	C117.393044,230.144867 119.196373,228.572433 120.999695,227.000000 
z"/>
<path fill="#FCFDFD" opacity="1.000000" stroke="none" 
	d="
M111.266190,205.779602 
	C109.848526,205.356262 108.697533,204.712524 106.986511,204.028122 
	C106.426498,203.987473 106.000710,203.830002 105.784874,203.592712 
	C104.712822,202.232269 103.856606,201.109116 103.000389,199.985947 
	C105.377136,199.943695 107.753876,199.901459 110.565460,199.959045 
	C111.177826,201.892303 111.355347,203.725754 111.266190,205.779602 
z"/>
<path fill="#FCFDFD" opacity="1.000000" stroke="none" 
	d="
M120.951691,226.662689 
	C119.196373,228.572433 117.393044,230.144867 115.295013,231.858643 
	C114.336929,231.235962 113.673546,230.471924 113.333649,229.307785 
	C114.081650,228.232849 114.506157,227.558029 114.949242,226.926147 
	C114.967819,226.969070 114.882179,226.931458 115.237549,226.905411 
	C116.061951,225.919785 116.530975,224.960190 117.000000,224.000610 
	C118.301231,224.775543 119.602463,225.550461 120.951691,226.662689 
z"/>
<path fill="#43698E" opacity="1.000000" stroke="none" 
	d="
M97.464813,227.117676 
	C93.313896,227.132111 89.624664,227.079285 85.476013,227.034271 
	C87.210678,226.695511 89.400230,226.088013 91.599655,226.049896 
	C99.016907,225.921326 106.437660,225.995041 114.386032,226.218933 
	C114.914978,226.446457 114.882179,226.931458 114.882179,226.931458 
	C114.882179,226.931458 114.967819,226.969070 114.582565,226.970490 
	C113.463570,227.044525 112.729828,227.117142 111.996078,227.189758 
	C107.306213,227.143295 102.616356,227.096848 97.464813,227.117676 
z"/>
<path fill="#FCFDFD" opacity="1.000000" stroke="none" 
	d="
M115.040588,217.008026 
	C116.324638,215.218430 117.516327,213.409561 118.854012,211.300415 
	C121.502716,213.341751 120.105042,217.343048 115.422142,219.617432 
	C114.908630,218.488922 114.834816,217.727127 114.761002,216.965332 
	C114.760994,216.965332 114.948235,216.988739 115.040588,217.008026 
z"/>
<path fill="#FCFDFD" opacity="1.000000" stroke="none" 
	d="
M125.746498,236.162842 
	C125.136238,236.869659 124.447998,237.237656 123.759758,237.605637 
	C123.610718,237.039154 123.461678,236.472656 123.312630,235.906174 
	C124.097923,235.878799 124.883224,235.851410 125.746498,236.162842 
z"/>
<path fill="#FCFDFD" opacity="1.000000" stroke="none" 
	d="
M112.022278,227.465515 
	C112.729828,227.117142 113.463570,227.044525 114.563995,226.927582 
	C114.506157,227.558029 114.081650,228.232849 113.328590,228.953827 
	C112.682846,228.580429 112.365662,228.160858 112.022278,227.465515 
z"/>
<path fill="#FCFDFD" opacity="1.000000" stroke="none" 
	d="
M115.237549,226.905411 
	C114.882179,226.931458 114.914978,226.446457 114.839935,226.215134 
	C114.834480,225.540100 114.904083,225.096405 115.056343,224.324997 
	C115.552559,223.998077 115.966110,223.998871 116.689835,224.000122 
	C116.530975,224.960190 116.061951,225.919785 115.237549,226.905411 
z"/>
<path fill="#43698E" opacity="1.000000" stroke="none" 
	d="
M114.546799,217.228348 
	C114.834816,217.727127 114.908630,218.488922 115.060646,219.626587 
	C115.069427,220.440781 115.000023,220.879089 114.846809,221.640656 
	C114.619530,220.473053 114.476059,218.982208 114.546799,217.228348 
z"/>
<path fill="#FBFDFE" opacity="1.000000" stroke="none" 
	d="
M107.025276,212.548737 
	C107.025276,212.548737 106.999084,212.655258 106.976212,212.704529 
	C106.863220,214.746277 106.773102,216.738770 105.866119,218.884308 
	C96.706459,219.082703 88.363655,219.128052 80.020851,219.173401 
	C79.575211,219.130432 79.129578,219.087479 78.352348,219.105103 
	C77.402260,219.944321 76.286995,220.699753 76.249329,221.505554 
	C76.064194,225.466156 76.165260,229.440140 76.165260,233.719696 
	C77.614197,233.844437 78.735466,234.105804 79.822746,234.004059 
	C83.253868,233.682907 84.158569,235.415009 83.998924,238.503006 
	C83.828438,241.800583 83.960518,245.113815 83.960518,248.351761 
	C91.360176,249.778397 91.360176,249.778397 91.672974,258.062256 
	C91.790451,259.084106 91.845436,259.457672 91.900421,259.831238 
	C91.603424,261.426941 91.306427,263.022675 91.029457,264.510742 
	C90.693100,264.649353 90.538948,264.773804 90.394150,264.763763 
	C85.745842,264.440460 79.494423,265.768158 76.918327,263.284943 
	C74.515724,260.968964 76.020233,254.599762 75.790039,249.698425 
	C73.665352,249.468964 71.584900,249.244263 69.020767,248.500046 
	C68.382263,246.722992 68.227455,245.465454 68.212372,243.840790 
	C67.889427,240.421509 67.426758,237.369339 66.964096,234.317169 
	C66.225090,234.263962 65.486092,234.210754 64.383255,234.236206 
	C63.234818,233.964325 62.450203,233.613770 61.366798,233.122681 
	C61.036079,232.532364 61.004154,232.082565 60.974464,230.937714 
	C60.649109,229.210938 60.321522,228.179230 59.993931,227.147537 
	C58.089413,227.147537 56.184898,227.147537 53.838577,227.147537 
	C53.838577,229.233490 53.838577,231.108917 53.892456,233.426208 
	C51.534893,233.997894 49.123447,234.127747 45.776211,234.307983 
	C46.262695,236.877457 46.685600,239.111115 47.082375,241.772125 
	C44.212009,242.500076 41.367786,242.800705 38.281666,243.126892 
	C38.171368,244.740433 38.028896,246.824661 37.868217,249.175308 
	C36.057545,249.305832 34.468895,249.420364 32.426392,249.528107 
	C31.412861,248.061600 30.370556,246.603958 30.364340,245.141907 
	C30.222183,211.708359 30.192007,178.274338 30.153748,144.840378 
	C30.153214,144.373474 30.316309,143.906372 30.441599,143.231705 
	C32.779743,143.231705 35.044300,143.231705 37.722076,143.231705 
	C37.786739,147.287964 38.769505,150.822815 44.675564,150.407562 
	C45.680393,153.101807 46.095642,155.417984 46.578186,158.109528 
	C52.267750,156.862503 55.123859,158.866409 54.116306,164.936188 
	C54.076382,165.176697 54.691925,165.525986 55.409691,165.897690 
	C57.197388,166.007080 58.577446,166.043350 60.028957,166.312393 
	C60.287754,166.842392 60.556328,167.007446 60.948471,167.476608 
	C61.062199,169.502243 61.133598,171.091614 61.202095,172.616455 
	C67.324867,173.349152 67.249825,173.372177 69.109909,179.433075 
	C69.315521,180.103012 70.984940,180.323685 72.350182,180.820068 
	C73.486115,180.909210 74.247322,180.931015 75.209427,181.307022 
	C75.816269,183.689499 76.222221,185.717773 76.576958,187.490097 
	C79.177963,188.039688 81.541840,188.539154 83.940018,189.474731 
	C83.974327,191.785690 83.974327,193.660538 83.974327,195.827576 
	C85.548561,195.827576 86.760567,195.827576 88.339272,195.902695 
	C89.452324,196.020996 90.198677,196.064194 91.023521,196.353851 
	C91.390854,196.773605 91.679688,196.946899 91.965149,197.550949 
	C92.058777,199.896088 92.155769,201.810440 92.224083,203.158890 
	C95.009369,203.896179 97.047905,204.435791 99.090714,205.395844 
	C99.147018,207.214020 99.199036,208.611786 99.204086,210.253204 
	C99.157120,210.496887 99.500618,210.855164 99.500618,210.855164 
	C99.500618,210.855164 99.996254,210.828400 100.410812,210.906982 
	C102.892014,211.506607 104.958649,212.027664 107.025276,212.548737 
z"/>
<path fill="#356695" opacity="1.000000" stroke="none" 
	d="
M91.957962,260.239014 
	C91.845436,259.457672 91.790451,259.084106 91.818634,258.436615 
	C92.132957,255.134567 91.384369,250.781921 95.616371,250.780914 
	C100.241058,250.779816 98.763260,255.268661 98.967941,258.194183 
	C99.081703,259.820251 98.988373,261.460846 98.988373,263.339661 
	C95.773033,263.976807 92.743668,265.408264 91.957962,260.239014 
z"/>
<path fill="#346798" opacity="1.000000" stroke="none" 
	d="
M86.669327,236.017014 
	C89.530403,234.733902 90.961555,235.552444 90.940742,238.252319 
	C90.920761,240.843552 90.741455,243.466843 90.248177,246.001297 
	C90.095642,246.784988 88.727852,247.761703 87.838158,247.848633 
	C86.989563,247.931564 85.240387,246.935532 85.260437,246.473404 
	C85.410423,243.017410 85.901283,239.576202 86.669327,236.017014 
z"/>
<path fill="#426A92" opacity="1.000000" stroke="none" 
	d="
M68.072655,244.207916 
	C68.227455,245.465454 68.382263,246.722992 68.649429,248.343536 
	C68.468086,248.765656 68.174400,248.824768 67.434128,248.935104 
	C66.994354,246.619217 67.001160,244.252121 67.277130,241.669662 
	C67.721748,242.372177 67.897202,243.290039 68.072655,244.207916 
z"/>
<path fill="#FFFFFF" opacity="1.000000" stroke="none" 
	d="
M70.997795,160.993958 
	C80.925499,150.850250 90.853210,140.706528 100.780922,130.562820 
	C101.233139,130.791794 101.685356,131.020752 102.137573,131.249725 
	C102.137573,151.526581 102.137573,171.803421 101.653778,192.540588 
	C98.123291,193.517044 95.012817,194.281250 94.064568,189.857513 
	C93.976891,189.448502 92.651718,189.304733 91.510742,189.014511 
	C90.081604,188.932526 89.042877,188.873825 88.003860,188.431396 
	C88.039619,185.972122 88.322662,183.859879 88.021568,181.834457 
	C87.832840,180.564865 86.765869,179.425842 86.092941,178.228226 
	C84.713394,179.094742 83.333839,179.961258 81.804764,180.940887 
	C81.393471,181.195908 81.296951,181.411850 81.335144,181.705872 
	C81.304619,181.709915 81.257248,181.670563 81.005089,181.387009 
	C80.517509,181.010864 80.282097,180.918274 79.995392,180.511566 
	C79.029312,179.463821 78.114532,178.730164 77.116028,177.748291 
	C76.968697,177.337402 76.905098,177.174744 76.918655,176.758240 
	C77.053329,176.337112 77.110840,176.169846 77.534164,175.994965 
	C80.381912,175.688309 81.959358,174.349304 80.273087,172.073349 
	C78.163940,169.226669 75.343521,166.916168 72.950409,164.265640 
	C72.115654,163.341095 71.638344,162.093842 70.997795,160.993958 
z"/>
<path fill="#FCFDFD" opacity="1.000000" stroke="none" 
	d="
M70.691910,161.099335 
	C71.638344,162.093842 72.115654,163.341095 72.950409,164.265640 
	C75.343521,166.916168 78.163940,169.226669 80.273087,172.073349 
	C81.959358,174.349304 80.381912,175.688309 77.446220,175.754608 
	C76.941948,175.358887 76.891426,175.195923 76.780518,174.653717 
	C74.450912,173.748474 72.181686,173.222473 70.017876,172.720901 
	C69.653008,170.727890 69.312355,168.867157 68.892204,166.705231 
	C68.222397,166.301437 67.632080,166.198822 66.820564,165.983093 
	C66.599365,165.869995 66.102509,165.873764 66.102509,165.873764 
	C67.530350,164.317413 68.958183,162.761063 70.691910,161.099335 
z"/>
<path fill="#4B729A" opacity="1.000000" stroke="none" 
	d="
M65.819290,165.919983 
	C66.102509,165.873764 66.599365,165.869995 66.983307,166.214645 
	C67.902069,166.708344 68.436890,166.857376 68.971710,167.006424 
	C69.312355,168.867157 69.653008,170.727890 70.017876,172.720901 
	C72.181686,173.222473 74.450912,173.748474 76.355034,174.641327 
	C74.060158,175.415024 72.130386,175.821854 70.200607,176.228699 
	C70.792221,177.736710 71.383842,179.244720 71.975464,180.752731 
	C70.984940,180.323685 69.315521,180.103012 69.109909,179.433075 
	C67.249825,173.372177 67.324867,173.349152 61.202095,172.616455 
	C61.133598,171.091614 61.062199,169.502243 61.315186,167.461456 
	C62.755070,166.716766 63.870575,166.423508 64.986084,166.130249 
	C65.169411,166.075577 65.352745,166.020889 65.819290,165.919983 
z"/>
<path fill="#FCFDFD" opacity="1.000000" stroke="none" 
	d="
M91.901154,189.037796 
	C92.651718,189.304733 93.976891,189.448502 94.064568,189.857513 
	C95.012817,194.281250 98.123291,193.517044 101.555496,193.000153 
	C102.107498,195.141678 102.273994,197.283966 102.720436,199.706085 
	C103.856606,201.109116 104.712822,202.232269 105.363586,203.660767 
	C103.452583,203.942581 101.747025,203.919083 100.019775,203.457642 
	C99.998070,200.838669 99.998070,198.657639 99.998070,196.337967 
	C96.840347,196.159454 94.450203,196.024338 92.037315,195.461609 
	C91.976761,193.035278 91.938957,191.036530 91.901154,189.037796 
z"/>
<path fill="#405E7C" opacity="1.000000" stroke="none" 
	d="
M64.605789,166.028336 
	C63.870575,166.423508 62.755070,166.716766 61.272850,167.025177 
	C60.556328,167.007446 60.287754,166.842392 60.185749,165.952774 
	C60.099579,163.416794 60.108253,161.424881 59.610653,159.568695 
	C59.506069,159.178574 56.743961,158.887573 56.569908,159.234650 
	C55.780678,160.808517 55.454063,162.620834 55.020313,164.362122 
	C54.905617,164.822556 55.002388,165.335663 55.002060,165.824585 
	C54.691925,165.525986 54.076382,165.176697 54.116306,164.936188 
	C55.123859,158.866409 52.267750,156.862503 46.578186,158.109528 
	C46.095642,155.417984 45.680393,153.101807 45.084290,150.416077 
	C45.364063,150.032837 45.824692,150.019104 46.630951,150.001801 
	C47.764961,150.324615 48.553345,150.650986 49.400063,151.307190 
	C48.699566,152.981369 47.940739,154.325714 47.181911,155.670059 
	C48.296585,156.107452 49.480705,157.001740 50.505215,156.846008 
	C51.419537,156.707031 52.482750,155.543320 52.882595,154.582977 
	C53.289265,153.606216 52.965672,152.325409 52.961857,151.177750 
	C53.226196,151.345749 53.733116,151.536331 53.719887,151.678513 
	C53.206650,157.194031 55.932858,159.121170 60.619457,158.109589 
	C61.952099,160.998367 63.088795,163.462402 64.605789,166.028336 
z"/>
<path fill="#366699" opacity="1.000000" stroke="none" 
	d="
M52.591896,151.111923 
	C52.965672,152.325409 53.289265,153.606216 52.882595,154.582977 
	C52.482750,155.543320 51.419537,156.707031 50.505215,156.846008 
	C49.480705,157.001740 48.296585,156.107452 47.181911,155.670059 
	C47.940739,154.325714 48.699566,152.981369 49.714790,151.384842 
	C50.721436,151.103790 51.471687,151.074951 52.591896,151.111923 
z"/>
<path fill="#405E7C" opacity="1.000000" stroke="none" 
	d="
M46.736877,144.662292 
	C45.602959,144.554031 44.512272,144.087143 43.230637,143.391663 
	C44.286499,143.543289 45.533302,143.923462 46.736877,144.662292 
z"/>
<path fill="#486E94" opacity="1.000000" stroke="none" 
	d="
M68.212372,243.840790 
	C67.897202,243.290039 67.721748,242.372177 67.282127,241.225647 
	C67.006218,239.046783 66.994461,237.096558 66.973404,234.731750 
	C67.426758,237.369339 67.889427,240.421509 68.212372,243.840790 
z"/>
<path fill="#486E94" opacity="1.000000" stroke="none" 
	d="
M59.996502,227.490723 
	C60.321522,228.179230 60.649109,229.210938 60.904938,230.606674 
	C60.555145,229.925110 60.277107,228.879517 59.996502,227.490723 
z"/>
<path fill="#486E94" opacity="1.000000" stroke="none" 
	d="
M80.341827,219.431564 
	C88.363655,219.128052 96.706459,219.082703 105.510422,219.112854 
	C97.535316,219.355499 89.099060,219.522614 80.341827,219.431564 
z"/>
<path fill="#3E6994" opacity="1.000000" stroke="none" 
	d="
M100.041473,203.895599 
	C101.747025,203.919083 103.452583,203.942581 105.579422,203.898041 
	C106.000710,203.830002 106.426498,203.987473 106.651382,204.018524 
	C107.040314,206.573013 107.204353,209.096436 107.196838,212.084290 
	C104.958649,212.027664 102.892014,211.506607 100.327850,210.736008 
	C99.687927,210.265930 99.494843,210.106949 99.251053,210.009537 
	C99.199036,208.611786 99.147018,207.214020 99.308014,205.273865 
	C99.782280,204.507492 99.955765,204.228882 100.041473,203.895599 
z"/>
<path fill="#4E749A" opacity="1.000000" stroke="none" 
	d="
M100.019775,203.457642 
	C99.955765,204.228882 99.782280,204.507492 99.303726,204.853424 
	C97.047905,204.435791 95.009369,203.896179 92.224083,203.158890 
	C92.155769,201.810440 92.058777,199.896088 91.987823,197.243164 
	C92.029251,196.299484 92.044662,196.094345 92.060066,195.889221 
	C94.450203,196.024338 96.840347,196.159454 99.998070,196.337967 
	C99.998070,198.657639 99.998070,200.838669 100.019775,203.457642 
z"/>
<path fill="#4B729A" opacity="1.000000" stroke="none" 
	d="
M80.046684,180.825684 
	C80.282097,180.918274 80.517509,181.010864 80.528595,181.467926 
	C77.061363,182.818680 78.010330,184.194443 78.616676,185.538361 
	C79.189766,185.613449 79.762856,185.688522 80.335945,185.763611 
	C80.679192,184.409683 81.022430,183.055756 81.365677,181.701828 
	C81.296951,181.411850 81.393471,181.195908 82.205177,181.019150 
	C87.022713,182.604523 83.723152,186.471527 84.815399,188.968231 
	C84.310036,189.007492 84.107872,189.023056 83.905708,189.038635 
	C81.541840,188.539154 79.177963,188.039688 76.576958,187.490097 
	C76.222221,185.717773 75.816269,183.689499 75.336670,181.014374 
	C75.789185,179.249054 76.315346,178.130569 76.841492,177.012085 
	C76.905098,177.174744 76.968697,177.337402 77.048820,178.133453 
	C78.059120,179.453125 79.052902,180.139404 80.046684,180.825684 
z"/>
<path fill="#376695" opacity="1.000000" stroke="none" 
	d="
M55.409691,165.897690 
	C55.002388,165.335663 54.905617,164.822556 55.020313,164.362122 
	C55.454063,162.620834 55.780678,160.808517 56.569908,159.234650 
	C56.743961,158.887573 59.506069,159.178574 59.610653,159.568695 
	C60.108253,161.424881 60.099579,163.416794 60.114300,165.720016 
	C58.577446,166.043350 57.197388,166.007080 55.409691,165.897690 
z"/>
<path fill="#356699" opacity="1.000000" stroke="none" 
	d="
M76.918663,176.758240 
	C76.315346,178.130569 75.789185,179.249054 75.135788,180.660187 
	C74.247322,180.931015 73.486115,180.909210 72.350182,180.820068 
	C71.383842,179.244720 70.792221,177.736710 70.200607,176.228699 
	C72.130386,175.821854 74.060158,175.415024 76.415421,175.020569 
	C76.891426,175.195923 76.941948,175.358887 77.080399,175.762207 
	C77.110840,176.169846 77.053329,176.337112 76.918663,176.758240 
z"/>
<path fill="#366695" opacity="1.000000" stroke="none" 
	d="
M90.945023,196.107376 
	C90.198677,196.064194 89.452324,196.020996 88.103371,195.644104 
	C86.771736,193.889160 86.042702,192.467911 85.313660,191.046661 
	C86.320915,190.703125 87.426102,189.929581 88.309311,190.130722 
	C89.294685,190.355118 90.489906,191.306778 90.844971,192.229919 
	C91.282326,193.367004 90.946625,194.801453 90.945023,196.107376 
z"/>
<path fill="#446585" opacity="1.000000" stroke="none" 
	d="
M91.023514,196.353851 
	C90.946625,194.801453 91.282326,193.367004 90.844971,192.229919 
	C90.489906,191.306778 89.294685,190.355118 88.309311,190.130722 
	C87.426102,189.929581 86.320915,190.703125 85.313660,191.046661 
	C86.042702,192.467911 86.771736,193.889160 87.736664,195.568985 
	C86.760567,195.827576 85.548561,195.827576 83.974327,195.827576 
	C83.974327,193.660538 83.974327,191.785690 83.940018,189.474731 
	C84.107872,189.023056 84.310036,189.007492 85.177567,188.987427 
	C86.563354,188.927002 87.283752,188.871063 88.004158,188.815125 
	C89.042877,188.873825 90.081604,188.932526 91.510742,189.014511 
	C91.938957,191.036530 91.976761,193.035278 92.037315,195.461609 
	C92.044662,196.094345 92.029251,196.299484 91.991180,196.812393 
	C91.679688,196.946899 91.390854,196.773605 91.023514,196.353851 
z"/>
<path fill="#4E749A" opacity="1.000000" stroke="none" 
	d="
M99.204086,210.253204 
	C99.494843,210.106949 99.687927,210.265930 99.913284,210.657440 
	C99.996254,210.828400 99.500618,210.855164 99.500618,210.855164 
	C99.500618,210.855164 99.157120,210.496887 99.204086,210.253204 
z"/>
<path fill="#FCFDFD" opacity="1.000000" stroke="none" 
	d="
M88.003860,188.431396 
	C87.283752,188.871063 86.563354,188.927002 85.480782,188.963730 
	C83.723152,186.471527 87.022713,182.604523 82.354706,180.906036 
	C83.333839,179.961258 84.713394,179.094742 86.092941,178.228226 
	C86.765869,179.425842 87.832840,180.564865 88.021568,181.834457 
	C88.322662,183.859879 88.039619,185.972122 88.003860,188.431396 
z"/>
<path fill="#49729B" opacity="1.000000" stroke="none" 
	d="
M81.335144,181.705872 
	C81.022430,183.055756 80.679192,184.409683 80.335945,185.763611 
	C79.762856,185.688522 79.189766,185.613449 78.616676,185.538361 
	C78.010330,184.194443 77.061363,182.818680 80.780746,181.751465 
	C81.257248,181.670563 81.304619,181.709915 81.335144,181.705872 
z"/>
<path fill="#FCFDFD" opacity="1.000000" stroke="none" 
	d="
M79.995392,180.511566 
	C79.052902,180.139404 78.059120,179.453125 77.132553,178.381683 
	C78.114532,178.730164 79.029312,179.463821 79.995392,180.511566 
z"/>
<path fill="#405E7C" opacity="1.000000" stroke="none" 
	d="
M68.892212,166.705231 
	C68.436890,166.857376 67.902069,166.708344 67.204506,166.327744 
	C67.632080,166.198822 68.222397,166.301437 68.892212,166.705231 
z"/>
</svg>