<svg version="1.1" id="Layer_1" xmlns="http://www.w3.org/2000/svg" xmlns:xlink="http://www.w3.org/1999/xlink" x="0px" y="0px"
	 width="100%" viewBox="0 0 85 160" enable-background="new 0 0 85 160" xml:space="preserve">
<path fill="#FBFCFC" opacity="1.000000" stroke="none" 
	d="
M86.000000,64.000000 
	C86.000000,96.666664 86.000000,128.833328 86.000000,161.000000 
	C57.666668,161.000000 29.333334,161.000000 1.000000,161.000000 
	C1.000000,107.666664 1.000000,54.333332 1.000000,1.000000 
	C29.333334,1.000000 57.666668,1.000000 86.000000,1.000000 
	C86.000000,21.833334 86.000000,42.666668 86.000000,64.000000 
M25.229813,100.292656 
	C25.229813,92.045532 25.229813,83.798416 25.229813,75.551292 
	C25.621574,75.295212 26.013334,75.039131 26.405096,74.783051 
	C32.029938,81.193901 37.654778,87.604759 44.389107,95.280136 
	C51.381931,87.536469 57.023853,81.288750 62.665775,75.041031 
	C63.027447,75.186752 63.389114,75.332466 63.750786,75.478188 
	C63.750786,87.270660 63.750786,99.063141 63.750786,110.995277 
	C74.782829,108.154617 75.897163,106.771584 75.897186,96.559868 
	C75.897217,81.247971 75.903824,65.936073 75.886223,50.624195 
	C75.884628,49.238628 75.727127,47.853245 75.642029,46.467773 
	C75.066032,46.045776 74.490036,45.623783 73.914040,45.201786 
	C64.283714,55.665661 54.653393,66.129532 43.428337,78.326172 
	C32.932541,66.999084 23.301029,56.604729 13.349024,45.864498 
	C13.349024,67.335136 13.349024,87.978340 13.349024,108.744164 
	C16.612955,107.528244 19.470211,106.018188 22.502382,105.462418 
	C25.403437,104.930679 25.319834,103.273598 25.229813,100.292656 
M36.141769,40.459805 
	C37.449139,41.680061 38.756504,42.900322 40.396519,44.431057 
	C41.510010,37.406349 42.475731,31.313887 43.441448,25.221422 
	C43.965973,25.278568 44.490498,25.335716 45.015022,25.392862 
	C46.090199,31.617022 47.165375,37.841183 48.485233,45.481796 
	C53.178570,39.727528 56.771107,35.322891 60.363640,30.918259 
	C60.806156,31.139427 61.248672,31.360596 61.691189,31.581762 
	C60.095715,37.570225 58.500237,43.558689 56.477024,51.152622 
	C63.592064,46.934349 69.390968,43.523582 75.142075,40.034039 
	C75.592506,39.760735 75.943230,38.938965 75.946327,38.369961 
	C75.995895,29.270639 75.981270,20.170969 75.981270,11.120700 
	C54.674232,11.120700 33.978672,11.120700 12.989453,11.120700 
	C12.989453,20.132885 12.961072,28.767658 13.032684,37.401604 
	C13.039968,38.279743 13.388795,39.571064 14.018999,39.962547 
	C19.312777,43.251019 24.709280,46.374119 30.074862,49.547001 
	C30.466469,49.248531 30.858078,48.950066 31.249687,48.651596 
	C29.842434,42.930267 28.435181,37.208939 27.027927,31.487608 
	C27.651066,31.287004 28.274202,31.086399 28.897341,30.885796 
	C31.180717,33.873096 33.464092,36.860397 36.141769,40.459805 
M50.499935,148.821091 
	C58.919807,148.821091 67.339684,148.821091 75.704422,148.821091 
	C75.704422,143.347214 75.704422,138.608276 75.704422,133.146317 
	C63.972984,141.919067 52.308571,141.266693 40.229206,135.049500 
	C37.085335,133.431381 33.107758,132.251907 29.695284,132.609497 
	C24.376852,133.166794 18.659931,134.315002 14.247711,137.047104 
	C12.382660,138.201965 13.391196,144.014297 13.134161,147.712494 
	C13.116497,147.966660 13.438930,148.244461 13.793949,148.821075 
	C25.577652,148.821075 37.538795,148.821075 50.499935,148.821091 
M16.530542,117.081192 
	C10.392630,119.217209 13.809523,123.991760 12.942833,128.680176 
	C24.334431,121.707314 34.673569,123.361748 45.440842,128.377029 
	C50.004051,130.502533 55.780384,131.082474 60.898041,130.743729 
	C72.415871,129.981293 76.643059,125.099213 75.468369,115.036194 
	C64.078278,123.690140 52.421272,122.880524 40.348343,116.839279 
	C32.829163,113.076721 24.982758,113.123001 16.530542,117.081192 
z"/>
<path fill="#040404" opacity="1.000000" stroke="none" 
	d="
M25.230038,100.761307 
	C25.319834,103.273598 25.403437,104.930679 22.502382,105.462418 
	C19.470211,106.018188 16.612955,107.528244 13.349024,108.744164 
	C13.349024,87.978340 13.349024,67.335136 13.349024,45.864498 
	C23.301029,56.604729 32.932541,66.999084 43.428337,78.326172 
	C54.653393,66.129532 64.283714,55.665661 73.914040,45.201786 
	C74.490036,45.623783 75.066032,46.045776 75.642029,46.467773 
	C75.727127,47.853245 75.884628,49.238628 75.886223,50.624195 
	C75.903824,65.936073 75.897217,81.247971 75.897186,96.559868 
	C75.897163,106.771584 74.782829,108.154617 63.750786,110.995277 
	C63.750786,99.063141 63.750786,87.270660 63.750786,75.478188 
	C63.389114,75.332466 63.027447,75.186752 62.665775,75.041031 
	C57.023853,81.288750 51.381931,87.536469 44.389107,95.280136 
	C37.654778,87.604759 32.029938,81.193901 26.405096,74.783051 
	C26.013334,75.039131 25.621574,75.295212 25.229813,75.551292 
	C25.229813,83.798416 25.229813,92.045532 25.230038,100.761307 
z"/>
<path fill="#2C759C" opacity="1.000000" stroke="none" 
	d="
M35.944618,40.153751 
	C33.464092,36.860397 31.180717,33.873096 28.897341,30.885796 
	C28.274202,31.086399 27.651066,31.287004 27.027927,31.487608 
	C28.435181,37.208939 29.842434,42.930267 31.249687,48.651596 
	C30.858078,48.950066 30.466469,49.248531 30.074862,49.547001 
	C24.709280,46.374119 19.312777,43.251019 14.018999,39.962547 
	C13.388795,39.571064 13.039968,38.279743 13.032684,37.401604 
	C12.961072,28.767658 12.989453,20.132885 12.989453,11.120700 
	C33.978672,11.120700 54.674232,11.120700 75.981270,11.120700 
	C75.981270,20.170969 75.995895,29.270639 75.946327,38.369961 
	C75.943230,38.938965 75.592506,39.760735 75.142075,40.034039 
	C69.390968,43.523582 63.592064,46.934349 56.477024,51.152622 
	C58.500237,43.558689 60.095715,37.570225 61.691189,31.581762 
	C61.248672,31.360596 60.806156,31.139427 60.363640,30.918259 
	C56.771107,35.322891 53.178570,39.727528 48.485233,45.481796 
	C47.165375,37.841183 46.090199,31.617022 45.015022,25.392862 
	C44.490498,25.335716 43.965973,25.278568 43.441448,25.221422 
	C42.475731,31.313887 41.510010,37.406349 40.396519,44.431057 
	C38.756504,42.900322 37.449139,41.680061 35.944618,40.153751 
z"/>
<path fill="#0A0A0A" opacity="1.000000" stroke="none" 
	d="
M49.999939,148.821075 
	C37.538795,148.821075 25.577652,148.821075 13.793949,148.821075 
	C13.438930,148.244461 13.116497,147.966660 13.134161,147.712494 
	C13.391196,144.014297 12.382660,138.201965 14.247711,137.047104 
	C18.659931,134.315002 24.376852,133.166794 29.695284,132.609497 
	C33.107758,132.251907 37.085335,133.431381 40.229206,135.049500 
	C52.308571,141.266693 63.972984,141.919067 75.704422,133.146317 
	C75.704422,138.608276 75.704422,143.347214 75.704422,148.821091 
	C67.339684,148.821091 58.919807,148.821091 49.999939,148.821075 
z"/>
<path fill="#080808" opacity="1.000000" stroke="none" 
	d="
M16.914291,116.957718 
	C24.982758,113.123001 32.829163,113.076721 40.348343,116.839279 
	C52.421272,122.880524 64.078278,123.690140 75.468369,115.036194 
	C76.643059,125.099213 72.415871,129.981293 60.898041,130.743729 
	C55.780384,131.082474 50.004051,130.502533 45.440842,128.377029 
	C34.673569,123.361748 24.334431,121.707314 12.942833,128.680176 
	C13.809523,123.991760 10.392630,119.217209 16.914291,116.957718 
z"/>
</svg>