<svg version="1.1" id="Layer_1" xmlns="http://www.w3.org/2000/svg" xmlns:xlink="http://www.w3.org/1999/xlink" x="0px" y="0px"
	 width="100%" viewBox="0 0 400 400" enable-background="new 0 0 400 400" xml:space="preserve">
<path fill="#FFFFFF" opacity="1.000000" stroke="none" 
	d="
M236.000000,401.000000 
	C157.333328,401.000000 79.166664,401.000000 1.000000,401.000000 
	C1.000000,267.666656 1.000000,134.333328 1.000000,1.000000 
	C134.333328,1.000000 267.666656,1.000000 401.000000,1.000000 
	C401.000000,134.333328 401.000000,267.666656 401.000000,401.000000 
	C346.166656,401.000000 291.333344,401.000000 236.000000,401.000000 
M281.954163,25.458176 
	C281.648987,25.360565 281.343842,25.262957 280.106140,25.022917 
	C251.338608,25.014732 222.571060,24.983147 193.803543,25.005903 
	C171.524750,25.023527 149.246017,25.109121 126.436829,25.109011 
	C126.311462,25.401367 126.186089,25.693726 125.878387,26.909922 
	C125.933594,49.943130 125.988792,72.976334 125.948105,96.511711 
	C126.037132,96.657021 126.126167,96.802330 126.434311,97.581802 
	C141.552948,106.460274 156.671570,115.338737 172.047409,124.682945 
	C172.218979,124.294456 172.390549,123.905968 172.390442,122.761711 
	C166.424774,101.622421 160.459106,80.483124 154.493454,59.343838 
	C154.777328,59.233391 155.061203,59.122948 155.345078,59.012501 
	C168.006699,76.300400 180.668304,93.588303 193.816452,111.540497 
	C197.291733,87.150017 200.616135,63.818417 203.940536,40.486816 
	C204.232285,40.518139 204.524033,40.549461 204.815765,40.580784 
	C208.132431,63.889301 211.449081,87.197823 214.914520,111.551971 
	C228.266144,93.317352 240.801361,76.197708 253.336578,59.078060 
	C253.628586,59.220715 253.920609,59.363369 254.212631,59.506023 
	C248.073639,81.111649 241.934647,102.717278 235.444290,125.559456 
	C251.331375,115.948746 266.165527,106.974991 281.521942,97.916542 
	C281.647919,97.619667 281.773926,97.322784 282.098053,96.103493 
	C282.039276,72.729774 281.980499,49.356056 281.954163,25.458176 
M251.208252,259.497345 
	C251.208252,265.089935 251.208252,270.682556 251.208252,276.618561 
	C261.477600,274.389893 270.058563,269.966461 278.162811,264.371948 
	C280.859406,262.510437 281.992676,260.511414 281.982941,257.084534 
	C281.850128,210.255646 281.893463,163.426270 281.893402,116.597015 
	C281.893402,115.504364 281.893372,114.411705 281.893372,112.095345 
	C255.334610,138.294266 229.576279,163.703613 203.857162,189.074265 
	C177.895859,163.503448 152.259460,138.252640 126.226639,112.611366 
	C126.226639,165.951080 126.226639,218.358505 126.226639,270.542084 
	C136.166367,266.884155 145.979446,263.272858 156.285858,259.479980 
	C156.285858,235.252777 156.285858,210.342407 156.285858,185.432037 
	C156.623627,185.191849 156.961395,184.951660 157.299164,184.711472 
	C172.360321,200.514282 187.421478,216.317093 202.482635,232.119904 
	C203.449875,232.190659 204.417099,232.261429 205.384323,232.332184 
	C220.456833,216.543457 235.529343,200.754730 251.208252,184.330780 
	C251.208252,209.838898 251.208252,234.168716 251.208252,259.497345 
M254.499924,370.172180 
	C263.581635,370.172180 272.663330,370.172180 281.676819,370.172180 
	C281.676819,356.903442 281.676819,344.222015 281.676819,331.324738 
	C255.331726,350.997101 227.466553,353.248352 198.036972,337.979706 
	C174.795792,325.921753 151.473129,327.022980 128.717056,339.876251 
	C127.611603,340.500671 126.143120,341.802643 126.120514,342.817505 
	C125.918098,351.904816 126.002449,360.998505 126.002449,370.172180 
	C168.925156,370.172180 211.212540,370.172180 254.499924,370.172180 
M152.729477,308.993896 
	C155.360825,308.662354 157.983612,308.216644 160.624954,308.018036 
	C175.700974,306.884613 189.253754,311.864288 202.544937,318.252289 
	C228.918152,330.927795 254.194305,328.716675 278.167084,311.990784 
	C279.684723,310.931946 281.723663,309.229187 281.802429,307.735443 
	C282.182404,300.529449 281.973541,293.292389 281.973541,286.159149 
	C281.244476,286.060181 281.043396,285.966980 280.951080,286.030884 
	C280.274658,286.499176 279.623627,287.003876 278.958008,287.488037 
	C267.328705,295.946930 254.559372,301.249573 240.036377,302.193634 
	C225.331024,303.149567 211.817062,299.364594 198.920593,292.708740 
	C175.048920,280.388672 151.475449,281.432098 128.209717,294.354431 
	C127.245331,294.890076 126.068047,296.147949 126.044319,297.095703 
	C125.863518,304.316071 125.945251,311.543030 125.945251,318.515198 
	C134.898483,315.260834 143.389923,312.174286 152.729477,308.993896 
z"/>
<path fill="#020202" opacity="1.000000" stroke="none" 
	d="
M251.208252,258.997925 
	C251.208252,234.168716 251.208252,209.838898 251.208252,184.330780 
	C235.529343,200.754730 220.456833,216.543457 205.384323,232.332184 
	C204.417099,232.261429 203.449875,232.190659 202.482635,232.119904 
	C187.421478,216.317093 172.360321,200.514282 157.299164,184.711472 
	C156.961395,184.951660 156.623627,185.191849 156.285858,185.432037 
	C156.285858,210.342407 156.285858,235.252777 156.285858,259.479980 
	C145.979446,263.272858 136.166367,266.884155 126.226639,270.542084 
	C126.226639,218.358505 126.226639,165.951080 126.226639,112.611366 
	C152.259460,138.252640 177.895859,163.503448 203.857162,189.074265 
	C229.576279,163.703613 255.334610,138.294266 281.893372,112.095345 
	C281.893372,114.411705 281.893402,115.504364 281.893402,116.597015 
	C281.893463,163.426270 281.850128,210.255646 281.982941,257.084534 
	C281.992676,260.511414 280.859406,262.510437 278.162811,264.371948 
	C270.058563,269.966461 261.477600,274.389893 251.208252,276.618561 
	C251.208252,270.682556 251.208252,265.089935 251.208252,258.997925 
z"/>
<path fill="#24739E" opacity="1.000000" stroke="none" 
	d="
M126.967262,25.164499 
	C149.246017,25.109121 171.524750,25.023527 193.803543,25.005903 
	C222.571060,24.983147 251.338608,25.014732 280.669281,25.278860 
	C281.410706,25.763262 281.640472,25.912441 281.921722,25.982340 
	C281.980499,49.356056 282.039276,72.729774 281.795776,96.671387 
	C281.253265,97.444252 281.088684,97.698235 280.999695,98.001236 
	C266.165527,106.974991 251.331375,115.948746 235.444290,125.559456 
	C241.934647,102.717278 248.073639,81.111649 254.212631,59.506023 
	C253.920609,59.363369 253.628586,59.220715 253.336578,59.078060 
	C240.801361,76.197708 228.266144,93.317352 214.914520,111.551971 
	C211.449081,87.197823 208.132431,63.889301 204.815765,40.580784 
	C204.524033,40.549461 204.232285,40.518139 203.940536,40.486816 
	C200.616135,63.818417 197.291733,87.150017 193.816452,111.540497 
	C180.668304,93.588303 168.006699,76.300400 155.345078,59.012501 
	C155.061203,59.122948 154.777328,59.233391 154.493454,59.343838 
	C160.459106,80.483124 166.424774,101.622421 172.277496,123.308113 
	C172.039764,123.975410 171.914978,124.096306 171.790207,124.217201 
	C156.671570,115.338737 141.552948,106.460274 126.458649,97.156570 
	C126.336655,96.490738 126.190323,96.250145 126.043991,96.009544 
	C125.988792,72.976334 125.933594,49.943130 126.163956,26.364304 
	C126.696327,25.659382 126.868912,25.441320 126.967262,25.164499 
z"/>
<path fill="#010101" opacity="1.000000" stroke="none" 
	d="
M253.999908,370.172180 
	C211.212540,370.172180 168.925156,370.172180 126.002449,370.172180 
	C126.002449,360.998505 125.918098,351.904816 126.120514,342.817505 
	C126.143120,341.802643 127.611603,340.500671 128.717056,339.876251 
	C151.473129,327.022980 174.795792,325.921753 198.036972,337.979706 
	C227.466553,353.248352 255.331726,350.997101 281.676819,331.324738 
	C281.676819,344.222015 281.676819,356.903442 281.676819,370.172180 
	C272.663330,370.172180 263.581635,370.172180 253.999908,370.172180 
z"/>
<path fill="#020202" opacity="1.000000" stroke="none" 
	d="
M152.305420,309.040833 
	C143.389923,312.174286 134.898483,315.260834 125.945251,318.515198 
	C125.945251,311.543030 125.863518,304.316071 126.044319,297.095703 
	C126.068047,296.147949 127.245331,294.890076 128.209717,294.354431 
	C151.475449,281.432098 175.048920,280.388672 198.920593,292.708740 
	C211.817062,299.364594 225.331024,303.149567 240.036377,302.193634 
	C254.559372,301.249573 267.328705,295.946930 278.958008,287.488037 
	C279.623627,287.003876 280.274658,286.499176 280.951080,286.030884 
	C281.043396,285.966980 281.244476,286.060181 281.973541,286.159149 
	C281.973541,293.292389 282.182404,300.529449 281.802429,307.735443 
	C281.723663,309.229187 279.684723,310.931946 278.167084,311.990784 
	C254.194305,328.716675 228.918152,330.927795 202.544937,318.252289 
	C189.253754,311.864288 175.700974,306.884613 160.624954,308.018036 
	C157.983612,308.216644 155.360825,308.662354 152.305420,309.040833 
z"/>
<path fill="#126796" opacity="1.000000" stroke="none" 
	d="
M126.702042,25.136755 
	C126.868912,25.441320 126.696327,25.659382 126.255119,25.902386 
	C126.186089,25.693726 126.311462,25.401367 126.702042,25.136755 
z"/>
<path fill="#0E6594" opacity="1.000000" stroke="none" 
	d="
M281.937927,25.720257 
	C281.640472,25.912441 281.410706,25.763262 281.135559,25.350075 
	C281.343842,25.262957 281.648987,25.360565 281.937927,25.720257 
z"/>
<path fill="#126796" opacity="1.000000" stroke="none" 
	d="
M125.996048,96.260628 
	C126.190323,96.250145 126.336655,96.490738 126.349091,96.839485 
	C126.126167,96.802330 126.037132,96.657021 125.996048,96.260628 
z"/>
<path fill="#0E6594" opacity="1.000000" stroke="none" 
	d="
M281.260803,97.958893 
	C281.088684,97.698235 281.253265,97.444252 281.696716,97.132599 
	C281.773926,97.322784 281.647919,97.619667 281.260803,97.958893 
z"/>
<path fill="#24739E" opacity="1.000000" stroke="none" 
	d="
M172.363342,123.685989 
	C172.390549,123.905968 172.218979,124.294456 171.918808,124.450073 
	C171.914978,124.096306 172.039764,123.975410 172.363342,123.685989 
z"/>
</svg>